<!DOCTYPE svg  PUBLIC '-//W3C//DTD SVG 1.1//EN'  'http://www.w3.org/Graphics/SVG/1.1/DTD/svg11.dtd'>
<svg width="460.8pt" height="345.6pt" version="1.1" viewBox="0 0 460.8 345.6" xmlns="http://www.w3.org/2000/svg" xmlns:xlink="http://www.w3.org/1999/xlink"><defs><style type="text/css">*{stroke-linejoin: round; stroke-linecap: butt}</style></defs><path d="m0 345.6h460.8v-345.6h-460.8z" fill="#fff"/><g stroke="#f00" stroke-linecap="round" stroke-width="2"><path d="m238.24 32.419q0.20096-1.2145 0.0369-0.22301" clip-path="url(#a)" fill="none"/><path d="m235.65 35.816 2.6261-3.6199 1.3202 4.2728z" clip-path="url(#a)" fill="#f00"/></g><g stroke="#870078" stroke-linecap="round" stroke-width=".26416"><path d="m236.71 46.453q-0.005723 0.10836 0.004132-0.078216" clip-path="url(#a)" fill="none"/><path d="m238.93 42.486-2.2082 3.8889-1.7862-4.0999z" clip-path="url(#a)" fill="#870078"/></g><g stroke="#870078" stroke-linecap="round" stroke-width=".26416"><path d="m230.95 42.902q-2.1401 1.2235-4.0238 2.3004" clip-path="url(#a)" fill="none"/><path d="m231.39 44.954-4.4652 0.24894 2.48-3.7215z" clip-path="url(#a)" fill="#870078"/></g><g stroke="#c5003a" stroke-linecap="round" stroke-width="1.548"><path d="m237.49 36.965q-0.20096 1.2145-0.1194 0.72164" clip-path="url(#a)" fill="none"/><path d="m240 34.067-2.6261 3.6199-1.3202-4.2728z" clip-path="url(#a)" fill="#c5003a"/></g><g stroke="#dc0023" stroke-linecap="round" stroke-width="1.7233"><path d="m186.63 315.12q2.297 0.24414 2.6781 0.28465" clip-path="url(#a)" fill="none"/><path d="m185.54 312.99 3.7662 2.4116-4.189 1.566z" clip-path="url(#a)" fill="#dc0023"/></g><g stroke="#c5003a" stroke-linecap="round" stroke-width="1.548"><path d="m184.19 314.86q-2.297-0.24414-2.8731-0.30537" clip-path="url(#a)" fill="none"/><path d="m185.09 316.97-3.7662-2.4116 4.189-1.566z" clip-path="url(#a)" fill="#c5003a"/></g><g stroke="#c5003a" stroke-linecap="round" stroke-width="1.548"><path d="m236.7 46.67q0.005724-0.10836-0.079841 1.5115" clip-path="url(#a)" fill="none"/><path d="m234.41 52.071 2.2082-3.8889 1.7862 4.0999z" clip-path="url(#a)" fill="#c5003a"/></g><g stroke="#c5003a" stroke-linecap="round" stroke-width="1.548"><path d="m415.08 203.69q2.8691 0.51989 4.0353 0.73121" clip-path="url(#a)" fill="none"/><path d="m415.53 201.74 3.5793 2.6812-4.2925 1.2548z" clip-path="url(#a)" fill="#c5003a"/></g><g stroke="#50a" stroke-linecap="round" stroke-width=".16667"><path d="m404.53 208.52q-1.0479 1.7806-2.0013 3.4006" clip-path="url(#a)" fill="none"/><path d="m406.28 209.49-3.7525 2.4329 0.30514-4.4617z" clip-path="url(#a)" fill="#50a"/></g><g stroke="#a05" stroke-linecap="round" stroke-width=".33333"><path d="m406.04 195.67q-0.07439-0.24227-0.039388-0.12828" clip-path="url(#a)" fill="none"/><path d="m405.26 199.96 0.73778-4.4109 3.086 3.2367z" clip-path="url(#a)" fill="#a05"/></g><g stroke="#a05" stroke-linecap="round" stroke-width=".33333"><path d="m413.85 203.47q-2.8691-0.51989-5.3715-0.97334" clip-path="url(#a)" fill="none"/><path d="m412.06 205.18-3.5793-2.6812 4.2925-1.2548z" clip-path="url(#a)" fill="#a05"/></g><g stroke="#50a" stroke-linecap="round" stroke-width=".16667"><path d="m414.25 207.36q-2.6234 1.0495-5.0737 2.0298" clip-path="url(#a)" fill="none"/><path d="m413.63 209.76-4.4567-0.37117 2.971-3.3427z" clip-path="url(#a)" fill="#50a"/></g><g stroke="#50a" stroke-linecap="round" stroke-width=".16667"><path d="m414.86 200.92q-1.5048-0.96251-2.8527-1.8246" clip-path="url(#a)" fill="none"/><path d="m414.3 202.94-2.292-3.8401 4.4473 0.47044z" clip-path="url(#a)" fill="#50a"/></g><g stroke="#a05" stroke-linecap="round" stroke-width=".33333"><path d="m232.81 41.841q2.1401-1.2235 3.9567-2.262" clip-path="url(#a)" fill="none"/><path d="m232.3 39.828 4.4652-0.24894-2.48 3.7215z" clip-path="url(#a)" fill="#a05"/></g><g stroke="#870078" stroke-linecap="round" stroke-width=".26416"><path d="m232.01 49.983q2.1591 1.8729 4.095 3.5523" clip-path="url(#a)" fill="none"/><path d="m234.4 49.404 1.711 4.1319-4.3321-1.1103z" clip-path="url(#a)" fill="#870078"/></g><g stroke="#a05" stroke-linecap="round" stroke-width=".33333"><path d="m406.02 205.99q1.0479-1.7806 1.9068-3.24" clip-path="url(#a)" fill="none"/><path d="m404.17 205.19 3.7525-2.4329-0.30514 4.4617z" clip-path="url(#a)" fill="#a05"/></g><g stroke="#a05" stroke-linecap="round" stroke-width=".33333"><path d="m268.15 270.29q-0.59743 2.9113-1.1199 5.4575" clip-path="url(#a)" fill="none"/><path d="m269.79 272.23-2.7633 3.5163-1.1551-4.3204z" clip-path="url(#a)" fill="#a05"/></g><g stroke="#a05" stroke-linecap="round" stroke-width=".33333"><path d="m272.46 280.54q1.4928 1.2 2.6951 2.1665" clip-path="url(#a)" fill="none"/><path d="m273.29 278.64 1.8646 4.0649-4.3707-0.94729z" clip-path="url(#a)" fill="#a05"/></g><g stroke="#870078" stroke-linecap="round" stroke-width=".26416"><path d="m261.86 271.21q-2.411-2.3185-4.609-4.4324" clip-path="url(#a)" fill="none"/><path d="m258.74 270.99-1.4968-4.2142 4.2695 1.3311z" clip-path="url(#a)" fill="#870078"/></g><g stroke="#a05" stroke-linecap="round" stroke-width=".33333"><path d="m231.79 132.77q-1.5429 0.08041-2.7136 0.14142" clip-path="url(#a)" fill="none"/><path d="m233.18 134.7-4.0987-1.7891 3.8905-2.2055z" clip-path="url(#a)" fill="#a05"/></g><g stroke="#870078" stroke-linecap="round" stroke-width=".26416"><path d="m245.92 132.64q1.8529 0.064844 3.4106 0.11936" clip-path="url(#a)" fill="none"/><path d="m245.41 130.63 3.9276 2.1387-4.0675 1.8589z" clip-path="url(#a)" fill="#870078"/></g><g stroke="#870078" stroke-linecap="round" stroke-width=".26416"><path d="m245.1 129.07q0.51272-0.2729 0.76474-0.40704" clip-path="url(#a)" fill="none"/><path d="m241.39 128.78 4.4707-0.11391-2.5913 3.6449z" clip-path="url(#a)" fill="#870078"/></g><g stroke="#a05" stroke-linecap="round" stroke-width=".33333"><path d="m228.71 132.93q1.5429-0.08041 2.7136-0.14142" clip-path="url(#a)" fill="none"/><path d="m227.32 131 4.0987 1.7891-3.8905 2.2055z" clip-path="url(#a)" fill="#a05"/></g><g stroke="#a05" stroke-linecap="round" stroke-width=".33333"><path d="m46.241 193.57q-3.1273 0.84963-5.8949 1.6016" clip-path="url(#a)" fill="none"/><path d="m44.731 196.05-4.3844-0.88131 3.3357-2.9788z" clip-path="url(#a)" fill="#a05"/></g><g stroke="#870078" stroke-linecap="round" stroke-width=".26416"><path d="m46.81 193.41q3.1273-0.84963 5.9695-1.6218" clip-path="url(#a)" fill="none"/><path d="m48.395 190.91 4.3844 0.88131-3.3357 2.9788z" clip-path="url(#a)" fill="#870078"/></g><g stroke="#870078" stroke-linecap="round" stroke-width=".26416"><path d="m249.63 132.77q-1.8529-0.064844-3.4106-0.11936" clip-path="url(#a)" fill="none"/><path d="m250.14 134.79-3.9276-2.1387 4.0675-1.8589z" clip-path="url(#a)" fill="#870078"/></g><g stroke="#a05" stroke-linecap="round" stroke-width=".33333"><path d="m253.27 126.84q-0.45155-0.81479-0.72246-1.3036" clip-path="url(#a)" fill="none"/><path d="m252.73 130-0.18961-4.4681 3.6883 2.5292z" clip-path="url(#a)" fill="#a05"/></g><g stroke="#870078" stroke-linecap="round" stroke-width=".26416"><path d="m246.12 128.53q-0.51272 0.2729-0.76474 0.40704" clip-path="url(#a)" fill="none"/><path d="m249.83 128.82-4.4707 0.11391 2.5913-3.6449z" clip-path="url(#a)" fill="#870078"/></g><g stroke="#870078" stroke-linecap="round" stroke-width=".26416"><path d="m255.79 131.39q0.45155 0.81479 0.75994 1.3713" clip-path="url(#a)" fill="none"/><path d="m256.36 128.3 0.18961 4.4681-3.6883-2.5292z" clip-path="url(#a)" fill="#870078"/></g><g stroke="#a05" stroke-linecap="round" stroke-width=".33333"><path d="m407.97 201.95q0.07439 0.24227 0.039389 0.12828" clip-path="url(#a)" fill="none"/><path d="m408.74 197.67-0.73778 4.4109-3.086-3.2367z" clip-path="url(#a)" fill="#a05"/></g><g stroke="#870078" stroke-linecap="round" stroke-width=".26416"><path d="m411.85 199q1.5048 0.96251 2.7609 1.7659" clip-path="url(#a)" fill="none"/><path d="m412.32 196.92 2.292 3.8401-4.4473-0.47044z" clip-path="url(#a)" fill="#870078"/></g><g stroke="#50a" stroke-linecap="round" stroke-width=".16667"><path d="m275.45 282.94q-1.4928-1.2-2.8403-2.2832" clip-path="url(#a)" fill="none"/><path d="m274.48 284.72-1.8646-4.0649 4.3707 0.94729z" clip-path="url(#a)" fill="#50a"/></g><g stroke="#870078" stroke-linecap="round" stroke-width=".26416"><path d="m257.03 266.57q2.411 2.3185 4.609 4.4324" clip-path="url(#a)" fill="none"/><path d="m260.15 266.79 1.4968 4.2142-4.2695-1.3311z" clip-path="url(#a)" fill="#870078"/></g><defs><path id="b" d="m0 7.0711c1.8753 0 3.674-0.74505 5-2.0711 1.326-1.326 2.0711-3.1247 2.0711-5s-0.74505-3.674-2.0711-5c-1.326-1.326-3.1247-2.0711-5-2.0711s-3.674 0.74505-5 2.0711c-1.326 1.326-2.0711 3.1247-2.0711 5s0.74505 3.674 2.0711 5c1.326 1.326 3.1247 2.0711 5 2.0711z"/></defs><g clip-path="url(#a)" fill="#4ec3ed" stroke="#4ec3ed"><use x="237.086498" y="39.39418" xlink:href="#b"/><use x="238.642517" y="29.990083" xlink:href="#b"/><use x="179.598073" y="314.374578" xlink:href="#b"/><use x="191.220747" y="315.609917" xlink:href="#b"/><use x="236.329325" y="53.728948" xlink:href="#b"/><use x="408.115392" y="202.432356" xlink:href="#b"/><use x="420.813223" y="204.733251" xlink:href="#b"/><use x="226.669532" y="45.349427" xlink:href="#b"/><use x="402.43412" y="212.08593" xlink:href="#b"/><use x="269.570459" y="263.361323" xlink:href="#b"/><use x="266.954684" y="276.108156" xlink:href="#b"/><use x="238.85274" y="132.39739" xlink:href="#b"/><use x="221.647911" y="133.294037" xlink:href="#b"/><use x="53.064098" y="191.712177" xlink:href="#b"/><use x="39.986777" y="195.265108" xlink:href="#b"/><use x="256.695394" y="133.021824" xlink:href="#b"/><use x="252.363868" y="125.20595" xlink:href="#b"/><use x="405.891291" y="195.189016" xlink:href="#b"/><use x="280.962095" y="287.368032" xlink:href="#b"/><use x="251.936404" y="261.665515" xlink:href="#b"/></g><g clip-path="url(#a)"><g transform="translate(235.18 41.05) scale(.06 -.06)"><defs><path id="c" transform="scale(.015625)" d="m794 531h1031v3560l-1122-225v575l1116 225h631v-4135h1031v-531h-2687v531z"/></defs><use xlink:href="#c"/></g></g><g clip-path="url(#a)"><g transform="translate(236.73 31.646) scale(.06 -.06)"><defs><path id="d" transform="scale(.015625)" d="m1228 531h2203v-531h-2962v531q359 372 979 998 621 627 780 809 303 340 423 576 121 236 121 464 0 372-261 606-261 235-680 235-297 0-627-103-329-103-704-313v638q381 153 712 231 332 78 607 78 725 0 1156-363 431-362 431-968 0-288-108-546-107-257-392-607-78-91-497-524-418-433-1181-1211z"/></defs><use xlink:href="#d"/></g></g><g clip-path="url(#a)"><g transform="translate(177.69 316.03) scale(.06 -.06)"><defs><path id="k" transform="scale(.015625)" d="m2597 2516q453-97 707-404 255-306 255-756 0-690-475-1069-475-378-1350-378-293 0-604 58t-642 174v609q262-153 574-231 313-78 654-78 593 0 904 234t311 681q0 413-289 645-289 233-804 233h-544v519h569q465 0 712 186t247 536q0 359-255 551-254 193-729 193-260 0-557-57-297-56-653-174v562q360 100 674 150t592 50q719 0 1137-327 419-326 419-882 0-388-222-655t-631-370z"/></defs><use xlink:href="#k"/></g></g><g clip-path="url(#a)"><g transform="translate(189.31 317.27) scale(.06 -.06)"><defs><path id="j" transform="scale(.015625)" d="m2419 4116-1594-2491h1594v2491zm-166 550h794v-3041h666v-525h-666v-1100h-628v1100h-2106v609l1940 2957z"/></defs><use xlink:href="#j"/></g></g><g clip-path="url(#a)"><g transform="translate(234.42 55.385) scale(.06 -.06)"><defs><path id="i" transform="scale(.015625)" d="m691 4666h2478v-532h-1900v-1143q137 47 274 70 138 23 276 23 781 0 1237-428 457-428 457-1159 0-753-469-1171-469-417-1322-417-294 0-599 50-304 50-629 150v635q281-153 581-228t634-75q541 0 856 284 316 284 316 772 0 487-316 771-315 285-856 285-253 0-505-56-251-56-513-175v2344z"/></defs><use xlink:href="#i"/></g></g><g clip-path="url(#a)"><g transform="translate(406.21 204.09) scale(.06 -.06)"><defs><path id="h" transform="scale(.015625)" d="m2113 2584q-425 0-674-291-248-290-248-796 0-503 248-796 249-292 674-292t673 292q248 293 248 796 0 506-248 796-248 291-673 291zm1253 1979v-575q-238 112-480 171-242 60-480 60-625 0-955-422-329-422-376-1275 184 272 462 417 279 145 613 145 703 0 1111-427 408-426 408-1160 0-719-425-1154-425-434-1131-434-810 0-1238 620-428 621-428 1799 0 1106 525 1764t1409 658q238 0 480-47t505-140z"/></defs><use xlink:href="#h"/></g></g><g clip-path="url(#a)"><g transform="translate(418.9 206.39) scale(.06 -.06)"><defs><path id="g" transform="scale(.015625)" d="m525 4666h3e3v-269l-1694-4397h-659l1594 4134h-2241v532z"/></defs><use xlink:href="#g"/></g></g><g clip-path="url(#a)"><g transform="translate(224.76 47.005) scale(.06 -.06)"><defs><path id="f" transform="scale(.015625)" d="m2034 2216q-450 0-708-241-257-241-257-662 0-422 257-663 258-241 708-241t709 242q260 243 260 662 0 421-258 662-257 241-711 241zm-631 268q-406 100-633 378-226 279-226 679 0 559 398 884 399 325 1092 325 697 0 1094-325t397-884q0-400-227-679-226-278-629-378 456-106 710-416 255-309 255-755 0-679-414-1042-414-362-1186-362-771 0-1186 362-414 363-414 1042 0 446 256 755 257 310 713 416zm-231 997q0-362 226-565 227-203 636-203 407 0 636 203 230 203 230 565 0 363-230 566-229 203-636 203-409 0-636-203-226-203-226-566z"/></defs><use xlink:href="#f"/></g></g><g clip-path="url(#a)"><g transform="translate(400.53 213.74) scale(.06 -.06)"><defs><path id="e" transform="scale(.015625)" d="m703 97v575q238-113 481-172 244-59 479-59 625 0 954 420 330 420 377 1277-181-269-460-413-278-144-615-144-700 0-1108 423-408 424-408 1159 0 718 425 1152 425 435 1131 435 810 0 1236-621 427-620 427-1801 0-1103-524-1761-523-658-1407-658-238 0-482 47-243 47-506 141zm1256 1978q425 0 673 290 249 291 249 798 0 503-249 795-248 292-673 292t-673-292-248-795q0-507 248-798 248-290 673-290z"/></defs><use xlink:href="#e"/></g></g><g clip-path="url(#a)"><g transform="translate(265.75 265.02) scale(.06 -.06)"><defs><path id="l" transform="scale(.015625)" d="m2034 4250q-487 0-733-480-245-479-245-1442 0-959 245-1439 246-480 733-480 491 0 736 480 246 480 246 1439 0 963-246 1442-245 480-736 480zm0 500q785 0 1199-621 414-620 414-1801 0-1178-414-1799-414-620-1199-620-784 0-1198 620-414 621-414 1799 0 1181 414 1801 414 621 1198 621z"/></defs><use xlink:href="#c"/><use x="63.623047" xlink:href="#l"/></g></g><g clip-path="url(#a)"><g transform="translate(263.14 277.76) scale(.06 -.06)"><use xlink:href="#c"/><use x="63.623047" xlink:href="#c"/></g></g><g clip-path="url(#a)"><g transform="translate(235.04 134.05) scale(.06 -.06)"><use xlink:href="#c"/><use x="63.623047" xlink:href="#d"/></g></g><g clip-path="url(#a)"><g transform="translate(217.83 134.95) scale(.06 -.06)"><use xlink:href="#c"/><use x="63.623047" xlink:href="#k"/></g></g><g clip-path="url(#a)"><g transform="translate(49.247 193.37) scale(.06 -.06)"><use xlink:href="#c"/><use x="63.623047" xlink:href="#j"/></g></g><g clip-path="url(#a)"><g transform="translate(36.169 196.92) scale(.06 -.06)"><use xlink:href="#c"/><use x="63.623047" xlink:href="#i"/></g></g><g clip-path="url(#a)"><g transform="translate(252.88 134.68) scale(.06 -.06)"><use xlink:href="#c"/><use x="63.623047" xlink:href="#h"/></g></g><g clip-path="url(#a)"><g transform="translate(248.55 126.86) scale(.06 -.06)"><use xlink:href="#c"/><use x="63.623047" xlink:href="#g"/></g></g><g clip-path="url(#a)"><g transform="translate(402.07 196.84) scale(.06 -.06)"><use xlink:href="#c"/><use x="63.623047" xlink:href="#f"/></g></g><g clip-path="url(#a)"><g transform="translate(277.14 289.02) scale(.06 -.06)"><use xlink:href="#c"/><use x="63.623047" xlink:href="#e"/></g></g><g clip-path="url(#a)"><g transform="translate(248.12 263.32) scale(.06 -.06)"><use xlink:href="#d"/><use x="63.623047" xlink:href="#l"/></g></g><defs><clipPath id="a"><rect width="460.8" height="345.6"/></clipPath></defs></svg>
