<!DOCTYPE svg  PUBLIC '-//W3C//DTD SVG 1.1//EN'  'http://www.w3.org/Graphics/SVG/1.1/DTD/svg11.dtd'>
<svg width="460.8pt" height="345.6pt" version="1.1" viewBox="0 0 460.8 345.6" xmlns="http://www.w3.org/2000/svg" xmlns:xlink="http://www.w3.org/1999/xlink"><defs><style type="text/css">*{stroke-linejoin: round; stroke-linecap: butt}</style></defs><path d="m0 345.6h460.8v-345.6h-460.8z" fill="#fff"/><g stroke="#f00" stroke-linecap="round" stroke-width="2"><path d="m247.29 157.52q-5.235-11.246-9.5264-20.466" clip-path="url(#a)" fill="none"/><path d="m237.64 141.52 0.12517-4.4704 3.5012 2.7824z" clip-path="url(#a)" fill="#f00"/></g><g stroke="#c80037" stroke-linecap="round" stroke-width="1.5721"><path d="m252.88 157.35q5.6717-14.303 10.695-26.971" clip-path="url(#a)" fill="none"/><path d="m260.24 133.36 3.3336-2.9811 0.38467 4.4556z" clip-path="url(#a)" fill="#c80037"/></g><g stroke="#bc0043" stroke-linecap="round" stroke-width="1.4763"><path d="m257.34 164.31q37.801 2.0443 73.955 3.9995" clip-path="url(#a)" fill="none"/><path d="m327.4 166.09 3.8862 2.2131-4.1022 1.7811z" clip-path="url(#a)" fill="#bc0043"/></g><g stroke="#b1004e" stroke-linecap="round" stroke-width=".34753"><path d="m252.78 170.53q12.402 32.664 24.666 64.965" clip-path="url(#a)" fill="none"/><path d="m277.9 231.05-0.44991 4.4494-3.2896-3.0296z" clip-path="url(#a)" fill="#b1004e"/></g><g stroke="#b5004a" stroke-linecap="round" stroke-width="1.4205"><path d="m243.31 165.17q-44.205 7.8998-86.847 15.52" clip-path="url(#a)" fill="none"/><path d="m160.76 181.96-4.2895-1.2651 3.5858-2.6725z" clip-path="url(#a)" fill="#b5004a"/></g><g stroke="#ad0052" stroke-linecap="round" stroke-width=".33944"><path d="m254.18 158.03q32.458-49.016 64.705-97.716" clip-path="url(#a)" fill="none"/><path d="m315.01 62.545 3.876-2.2309-0.54089 4.4393z" clip-path="url(#a)" fill="#ad0052"/></g><g stroke="#670098" stroke-linecap="round" stroke-width=".20174"><path d="m253.33 170.31q31.666 66.166 63.235 132.13" clip-path="url(#a)" fill="none"/><path d="m316.64 297.96-0.077255 4.4715-3.5308-2.7447z" clip-path="url(#a)" fill="#670098"/></g><g stroke="#a4005b" stroke-linecap="round" stroke-width=".3215"><path d="m257.2 162.51q72.755-14.836 145.16-29.6" clip-path="url(#a)" fill="none"/><path d="m398.04 131.75 4.319 1.1604-3.5197 2.7589z" clip-path="url(#a)" fill="#a4005b"/></g><g stroke="#7c0083" stroke-linecap="round" stroke-width=".24391"><path d="m244 160.66q-50.208-26.134-100.17-52.142" clip-path="url(#a)" fill="none"/><path d="m146.45 112.14-2.6247-3.6209 4.4715 0.072764z" clip-path="url(#a)" fill="#7c0083"/></g><g stroke="#85007a" stroke-linecap="round" stroke-width=".26065"><path d="m250.52 156.86q2.1081-59.901 4.2059-119.51" clip-path="url(#a)" fill="none"/><path d="m252.59 41.274 2.1394-3.9272 1.8581 4.0679z" clip-path="url(#a)" fill="#85007a"/></g><g stroke="#906" stroke-linecap="round" stroke-width=".30056"><path d="m246.04 169.59q-31.479 42.185-62.756 84.101" clip-path="url(#a)" fill="none"/><path d="m187.28 251.69-3.9951 2.0097 0.78928-4.4019z" clip-path="url(#a)" fill="#906"/></g><g stroke="#85007a" stroke-linecap="round" stroke-width=".26065"><path d="m247 157.66q-23.652-45.317-47.17-90.375" clip-path="url(#a)" fill="none"/><path d="m199.91 71.754-0.077784-4.4715 3.6238 2.6206z" clip-path="url(#a)" fill="#85007a"/></g><g stroke="#73008c" stroke-linecap="round" stroke-width=".22459"><path d="m243.91 167q-62.321 30.049-124.42 59.989" clip-path="url(#a)" fill="none"/><path d="m123.96 227.05-4.4717-0.064273 2.7344-3.5388z" clip-path="url(#a)" fill="#73008c"/></g><g stroke="#73008c" stroke-linecap="round" stroke-width=".22459"><path d="m256.17 160.01q50.653-33.637 101.1-67.134" clip-path="url(#a)" fill="none"/><path d="m352.82 93.426 4.4386-0.5467-2.2258 3.8789z" clip-path="url(#a)" fill="#73008c"/></g><g stroke="#906" stroke-linecap="round" stroke-width=".30056"><path d="m256.88 166.45q78.663 30.059 157.01 59.997" clip-path="url(#a)" fill="none"/><path d="m410.87 223.15 3.0226 3.296-4.4504 0.44045z" clip-path="url(#a)" fill="#906"/></g><g stroke="#906" stroke-linecap="round" stroke-width=".30056"><path d="m249.83 170.99q-4.3135 68.784-8.6061 137.23" clip-path="url(#a)" fill="none"/><path d="m243.47 304.35-2.2464 3.867-1.7457-4.1173z" clip-path="url(#a)" fill="#906"/></g><g stroke="#906" stroke-linecap="round" stroke-width=".30056"><path d="m244.38 160.02q-70.72-46.913-141.16-93.641" clip-path="url(#a)" fill="none"/><path d="m105.45 70.253-2.2277-3.8778 4.4389 0.54456z" clip-path="url(#a)" fill="#906"/></g><g stroke="#906" stroke-linecap="round" stroke-width=".30056"><path d="m255.86 168.26q44.533 34.613 88.8 69.02" clip-path="url(#a)" fill="none"/><path d="m342.73 233.25 1.9309 4.0338-4.3856-0.87561z" clip-path="url(#a)" fill="#906"/></g><g stroke="#906" stroke-linecap="round" stroke-width=".30056"><path d="m243.23 163.3q-98.101-8.7704-195.87-17.511" clip-path="url(#a)" fill="none"/><path d="m51.17 148.13-3.806-2.3482 4.1622-1.6359z" clip-path="url(#a)" fill="#906"/></g><g stroke="#fa0005" stroke-linecap="round" stroke-width="1.9614"><path d="m236.82 135.02q5.235 11.246 9.5446 20.505" clip-path="url(#a)" fill="none"/><path d="m246.49 151.06-0.12517 4.4704-3.5012-2.7824z" clip-path="url(#a)" fill="#fa0005"/></g><g stroke="#f90006" stroke-linecap="round" stroke-width="1.9513"><path d="m240.78 127.26q9.556-1.8647 16.971-3.3116" clip-path="url(#a)" fill="none"/><path d="m253.44 122.75 4.309 1.1969-3.5429 2.7291z" clip-path="url(#a)" fill="#f90006"/></g><g stroke="#2c00d3" stroke-linecap="round" stroke-width=".086883"><path d="m240.9 128.73q80.835 1.2948 161.57 2.588" clip-path="url(#a)" fill="none"/><path d="m398.51 129.25 3.9675 2.0638-4.0315 1.9357z" clip-path="url(#a)" fill="#2c00d3"/></g><g stroke="#e5001a" stroke-linecap="round" stroke-width="1.7967"><path d="m264.22 128.75q-5.6717 14.303-10.603 26.738" clip-path="url(#a)" fill="none"/><path d="m256.96 152.5-3.3336 2.9811-0.38467-4.4556z" clip-path="url(#a)" fill="#e5001a"/></g><g stroke="#f2000d" stroke-linecap="round" stroke-width="1.8973"><path d="m259.89 123.53q-9.556 1.8647-17.03 3.3231" clip-path="url(#a)" fill="none"/><path d="m247.17 128.05-4.309-1.1969 3.5429-2.7291z" clip-path="url(#a)" fill="#f2000d"/></g><g stroke="#4600b9" stroke-linecap="round" stroke-width=".13771"><path d="m267.61 129.2q5.8577 53.12 11.699 106.09" clip-path="url(#a)" fill="none"/><path d="m280.85 231.09-1.5495 4.1951-2.4264-3.7567z" clip-path="url(#a)" fill="#4600b9"/></g><g stroke="#4600b9" stroke-linecap="round" stroke-width=".13771"><path d="m271.33 116.72q23.583-28.582 47.069-57.046" clip-path="url(#a)" fill="none"/><path d="m314.31 61.487 4.0884-1.8125-1.0031 4.3582z" clip-path="url(#a)" fill="#4600b9"/></g><g stroke="#4600b9" stroke-linecap="round" stroke-width=".13771"><path d="m273.89 122.63q64.35 4.17 128.55 8.33" clip-path="url(#a)" fill="none"/><path d="m398.57 128.71 3.8623 2.2545-4.121 1.7372z" clip-path="url(#a)" fill="#4600b9"/></g><g stroke="#5900a6" stroke-linecap="round" stroke-width=".17376"><path d="m259.82 121.25q-57.75-7.6001-115.31-15.175" clip-path="url(#a)" fill="none"/><path d="m148.22 108.58-3.7048-2.5048 4.2268-1.461z" clip-path="url(#a)" fill="#5900a6"/></g><g stroke="#4600b9" stroke-linecap="round" stroke-width=".13771"><path d="m265.93 115.16q-5.0204-39.077-10.021-78.002" clip-path="url(#a)" fill="none"/><path d="m254.43 41.38 1.474-4.2222 2.4934 3.7125z" clip-path="url(#a)" fill="#4600b9"/></g><g stroke="#4600b9" stroke-linecap="round" stroke-width=".13771"><path d="m263.02 128.13q-40.175 62.774-80.267 125.42" clip-path="url(#a)" fill="none"/><path d="m186.6 251.25-3.8408 2.291 0.47166-4.4472z" clip-path="url(#a)" fill="#4600b9"/></g><g stroke="#4600b9" stroke-linecap="round" stroke-width=".13771"><path d="m261.5 117.52q-29.873-26.059-59.629-52.016" clip-path="url(#a)" fill="none"/><path d="m203.57 69.644-1.6996-4.1366 4.329 1.1223z" clip-path="url(#a)" fill="#4600b9"/></g><g stroke="#73008c" stroke-linecap="round" stroke-width=".22459"><path d="m273.52 119.86q41.583-14.364 82.928-28.646" clip-path="url(#a)" fill="none"/><path d="m352.01 90.634 4.4338 0.58436-3.1278 3.1964z" clip-path="url(#a)" fill="#73008c"/></g><g stroke="#2c00d3" stroke-linecap="round" stroke-width=".086883"><path d="m272.64 126.21q71.182 49.426 142.28 98.796" clip-path="url(#a)" fill="none"/><path d="m412.78 221.08 2.1449 3.9242-4.4263-0.63859z" clip-path="url(#a)" fill="#2c00d3"/></g><g stroke="#4600b9" stroke-linecap="round" stroke-width=".13771"><path d="m260.17 119.82q-78.224-27.595-156.3-55.138" clip-path="url(#a)" fill="none"/><path d="m106.97 67.9-3.1068-3.2168 4.4375-0.5554z" clip-path="url(#a)" fill="#4600b9"/></g><g stroke="#c0003f" stroke-linecap="round" stroke-width="1.502"><path d="m332.94 168.4q-37.801-2.0443-73.926-3.9979" clip-path="url(#a)" fill="none"/><path d="m262.9 166.61-3.8862-2.2131 4.1022-1.7811z" clip-path="url(#a)" fill="#c0003f"/></g><g stroke="#2c00d3" stroke-linecap="round" stroke-width=".086883"><path d="m334.04 164.98q-30.622-19.505-61.163-38.957" clip-path="url(#a)" fill="none"/><path d="m275.17 129.86-2.2993-3.8358 4.4482 0.46203z" clip-path="url(#a)" fill="#2c00d3"/></g><g stroke="#b90046" stroke-linecap="round" stroke-width="1.4492"><path d="m277.59 235.86q-12.402-32.664-24.229-63.813" clip-path="url(#a)" fill="none"/><path d="m252.91 176.5 0.44991-4.4494 3.2896 3.0296z" clip-path="url(#a)" fill="#b90046"/></g><g stroke="#4600b9" stroke-linecap="round" stroke-width=".13771"><path d="m279.32 235.44q-5.8577-53.12-11.699-106.09" clip-path="url(#a)" fill="none"/><path d="m266.07 133.55 1.5495-4.1951 2.4264 3.7567z" clip-path="url(#a)" fill="#4600b9"/></g><g stroke="#a90056" stroke-linecap="round" stroke-width=".33079"><path d="m283.71 248.54q16.191 27.198 32.193 54.077" clip-path="url(#a)" fill="none"/><path d="m315.58 298.16 0.32762 4.4601-3.7647-2.414z" clip-path="url(#a)" fill="#a90056"/></g><g stroke="#2c00d3" stroke-linecap="round" stroke-width=".086883"><path d="m277.14 236.05q-38.877-84.433-77.714-168.78" clip-path="url(#a)" fill="none"/><path d="m199.28 71.738 0.1437-4.4698 3.4896 2.7969z" clip-path="url(#a)" fill="#2c00d3"/></g><g stroke="#670098" stroke-linecap="round" stroke-width=".20174"><path d="m276.75 248.7q-16.318 30.341-32.528 60.483" clip-path="url(#a)" fill="none"/><path d="m247.87 306.61-3.656 2.5756 0.13318-4.4702z" clip-path="url(#a)" fill="#670098"/></g><g stroke="#8c0073" stroke-linecap="round" stroke-width=".27541"><path d="m287.17 242.41q28.134-0.25571 55.961-0.50862" clip-path="url(#a)" fill="none"/><path d="m339.11 239.93 4.018 1.9636-3.9817 2.0363z" clip-path="url(#a)" fill="#8c0073"/></g><g stroke="#b5004a" stroke-linecap="round" stroke-width="1.4205"><path d="m154.91 180.97q44.205-7.8998 86.847-15.52" clip-path="url(#a)" fill="none"/><path d="m237.46 164.18 4.2895 1.2651-3.5858 2.6725z" clip-path="url(#a)" fill="#b5004a"/></g><g stroke="#2c00d3" stroke-linecap="round" stroke-width=".086883"><path d="m153.94 178.47q36.946-23.056 73.81-46.061" clip-path="url(#a)" fill="none"/><path d="m223.3 132.83 4.4523-0.42096-2.3346 3.8144z" clip-path="url(#a)" fill="#2c00d3"/></g><g stroke="#2c00d3" stroke-linecap="round" stroke-width=".086883"><path d="m143.77 187.92q-13.351 18.266-26.645 36.453" clip-path="url(#a)" fill="none"/><path d="m121.1 222.33-3.9751 2.0491 0.74576-4.4095z" clip-path="url(#a)" fill="#2c00d3"/></g><g stroke="#9f0060" stroke-linecap="round" stroke-width=".31147"><path d="m319.09 59.997q-32.458 49.016-64.723 97.742" clip-path="url(#a)" fill="none"/><path d="m258.25 155.51-3.876 2.2309 0.54089-4.4393z" clip-path="url(#a)" fill="#9f0060"/></g><g stroke="#2c00d3" stroke-linecap="round" stroke-width=".086883"><path d="m318.5 59.555q-23.583 28.582-47.105 57.089" clip-path="url(#a)" fill="none"/><path d="m275.48 114.83-4.0884 1.8125 1.0031-4.3582z" clip-path="url(#a)" fill="#2c00d3"/></g><g stroke="#4600b9" stroke-linecap="round" stroke-width=".13771"><path d="m328.36 58.712q14.823 12.752 29.529 25.403" clip-path="url(#a)" fill="none"/><path d="m356.16 79.991 1.728 4.1248-4.3366-1.0925z" clip-path="url(#a)" fill="#4600b9"/></g><g stroke="#670098" stroke-linecap="round" stroke-width=".20174"><path d="m316.66 302.64q-31.666-66.166-63.235-132.13" clip-path="url(#a)" fill="none"/><path d="m253.35 174.98 0.077255-4.4715 3.5308 2.7447z" clip-path="url(#a)" fill="#670098"/></g><g stroke="#a90056" stroke-linecap="round" stroke-width=".33079"><path d="m316.1 302.94q-16.191-27.198-32.193-54.077" clip-path="url(#a)" fill="none"/><path d="m284.23 253.33-0.32762-4.4601 3.7647 2.414z" clip-path="url(#a)" fill="#a90056"/></g><g stroke="#4600b9" stroke-linecap="round" stroke-width=".13771"><path d="m312.66 309.61q-32.429 2.7081-64.704 5.4034" clip-path="url(#a)" fill="none"/><path d="m252.11 316.67-4.1526-1.6602 3.8197-2.3259z" clip-path="url(#a)" fill="#4600b9"/></g><g stroke="#4600b9" stroke-linecap="round" stroke-width=".13771"><path d="m322.66 302.59q12.451-27.167 24.838-54.194" clip-path="url(#a)" fill="none"/><path d="m344.01 251.2 3.4847-2.803 0.15158 4.4696z" clip-path="url(#a)" fill="#4600b9"/></g><g stroke="#8c0073" stroke-linecap="round" stroke-width=".27541"><path d="m402.71 132.84q-72.755 14.836-145.21 29.611" clip-path="url(#a)" fill="none"/><path d="m261.82 163.61-4.319-1.1604 3.5197-2.7589z" clip-path="url(#a)" fill="#8c0073"/></g><g stroke="#2c00d3" stroke-linecap="round" stroke-width=".086883"><path d="m402.57 131.31q-80.835-1.2948-161.57-2.588" clip-path="url(#a)" fill="none"/><path d="m244.97 130.79-3.9675-2.0638 4.0315-1.9357z" clip-path="url(#a)" fill="#2c00d3"/></g><g stroke="#4600b9" stroke-linecap="round" stroke-width=".13771"><path d="m402.59 130.97q-64.35-4.17-128.55-8.33" clip-path="url(#a)" fill="none"/><path d="m277.9 124.9-3.8623-2.2545 4.121-1.7372z" clip-path="url(#a)" fill="#4600b9"/></g><g stroke="#906" stroke-linecap="round" stroke-width=".30056"><path d="m143.58 108.39q50.208 26.134 100.12 52.112" clip-path="url(#a)" fill="none"/><path d="m241.08 156.88 2.6247 3.6209-4.4715-0.072763z" clip-path="url(#a)" fill="#906"/></g><g stroke="#2c00d3" stroke-linecap="round" stroke-width=".086883"><path d="m144.19 106.8q41.391 10.07 82.687 20.117" clip-path="url(#a)" fill="none"/><path d="m223.46 124.03 3.4138 2.8889-4.3594 0.99773z" clip-path="url(#a)" fill="#2c00d3"/></g><g stroke="#2c00d3" stroke-linecap="round" stroke-width=".086883"><path d="m144.32 106.05q57.75 7.6001 115.4 15.187" clip-path="url(#a)" fill="none"/><path d="m256.02 118.73 3.7048 2.5048-4.2268 1.461z" clip-path="url(#a)" fill="#2c00d3"/></g><g stroke="#906" stroke-linecap="round" stroke-width=".30056"><path d="m254.74 37.057q-2.1081 59.901-4.2044 119.47" clip-path="url(#a)" fill="none"/><path d="m252.67 152.6-2.1394 3.9272-1.8581-4.0679z" clip-path="url(#a)" fill="#906"/></g><g stroke="#2c00d3" stroke-linecap="round" stroke-width=".086883"><path d="m253.51 36.903q-9.0928 42.396-18.165 84.698" clip-path="url(#a)" fill="none"/><path d="m238.13 118.11-2.7943 3.4917-1.1167-4.3305z" clip-path="url(#a)" fill="#2c00d3"/></g><g stroke="#906" stroke-linecap="round" stroke-width=".30056"><path d="m183.09 253.96q31.479-42.185 62.756-84.101" clip-path="url(#a)" fill="none"/><path d="m241.85 171.87 3.9951-2.0097-0.78928 4.4019z" clip-path="url(#a)" fill="#906"/></g><g stroke="#2c00d3" stroke-linecap="round" stroke-width=".086883"><path d="m182.67 253.68q40.175-62.774 80.298-125.47" clip-path="url(#a)" fill="none"/><path d="m259.12 130.51 3.8408-2.291-0.47166 4.4472z" clip-path="url(#a)" fill="#2c00d3"/></g><g stroke="#906" stroke-linecap="round" stroke-width=".30056"><path d="m199.7 67.026q23.652 45.317 47.149 90.335" clip-path="url(#a)" fill="none"/><path d="m246.77 152.89 0.077784 4.4715-3.6238-2.6206z" clip-path="url(#a)" fill="#906"/></g><g stroke="#2c00d3" stroke-linecap="round" stroke-width=".086883"><path d="m199.39 67.182q38.877 84.433 77.714 168.78" clip-path="url(#a)" fill="none"/><path d="m277.24 231.49-0.1437 4.4698-3.4896-2.7969z" clip-path="url(#a)" fill="#2c00d3"/></g><g stroke="#906" stroke-linecap="round" stroke-width=".30056"><path d="m119.26 227.09q62.321-30.049 124.34-59.952" clip-path="url(#a)" fill="none"/><path d="m239.13 167.08 4.4717 0.064273-2.7344 3.5388z" clip-path="url(#a)" fill="#906"/></g><g stroke="#2c00d3" stroke-linecap="round" stroke-width=".086883"><path d="m118.31 225.62q55.058-46.231 110.04-92.4" clip-path="url(#a)" fill="none"/><path d="m224 134.26 4.3494-1.0406-1.7772 4.1039z" clip-path="url(#a)" fill="#2c00d3"/></g><g stroke="#2c00d3" stroke-linecap="round" stroke-width=".086883"><path d="m117.07 224.46q13.351-18.266 26.645-36.453" clip-path="url(#a)" fill="none"/><path d="m139.74 190.05 3.9751-2.0491-0.74576 4.4095z" clip-path="url(#a)" fill="#2c00d3"/></g><g stroke="#906" stroke-linecap="round" stroke-width=".30056"><path d="m357.47 92.74q-50.653 33.637-101.03 67.087" clip-path="url(#a)" fill="none"/><path d="m260.88 159.28-4.4386 0.5467 2.2258-3.8789z" clip-path="url(#a)" fill="#906"/></g><g stroke="#670098" stroke-linecap="round" stroke-width=".20174"><path d="m356.68 91.137q-41.583 14.364-82.952 28.655" clip-path="url(#a)" fill="none"/><path d="m278.16 120.38-4.4338-0.58436 3.1278-3.1964z" clip-path="url(#a)" fill="#670098"/></g><g stroke="#4600b9" stroke-linecap="round" stroke-width=".13771"><path d="m358 84.218q-14.823-12.752-29.529-25.403" clip-path="url(#a)" fill="none"/><path d="m330.2 62.939-1.728-4.1248 4.3366 1.0925z" clip-path="url(#a)" fill="#4600b9"/></g><g stroke="#8c0073" stroke-linecap="round" stroke-width=".27541"><path d="m414.21 226.57q-78.663-30.059-157.04-60.008" clip-path="url(#a)" fill="none"/><path d="m260.19 169.86-3.0226-3.296 4.4504-0.44045z" clip-path="url(#a)" fill="#8c0073"/></g><g stroke="#2c00d3" stroke-linecap="round" stroke-width=".086883"><path d="m420.01 222.07q-4.7819-41.808-9.5528-83.52" clip-path="url(#a)" fill="none"/><path d="m408.92 142.75 1.5325-4.2014 2.4416 3.7468z" clip-path="url(#a)" fill="#2c00d3"/></g><g stroke="#73008c" stroke-linecap="round" stroke-width=".22459"><path d="m241.2 308.55q4.3135-68.784 8.6114-137.32" clip-path="url(#a)" fill="none"/><path d="m247.57 175.1 2.2464-3.867 1.7457 4.1173z" clip-path="url(#a)" fill="#73008c"/></g><g stroke="#2c00d3" stroke-linecap="round" stroke-width=".086883"><path d="m241.71 308.6q12.09-89.71 24.167-179.32" clip-path="url(#a)" fill="none"/><path d="m263.36 132.97 2.5163-3.697 1.4478 4.2313z" clip-path="url(#a)" fill="#2c00d3"/></g><g stroke="#5900a6" stroke-linecap="round" stroke-width=".17376"><path d="m244.11 309.38q16.318-30.341 32.543-60.511" clip-path="url(#a)" fill="none"/><path d="m273 251.44 3.656-2.5756-0.13318 4.4702z" clip-path="url(#a)" fill="#5900a6"/></g><g stroke="#5900a6" stroke-linecap="round" stroke-width=".17376"><path d="m247.81 315.02q32.429-2.7081 64.664-5.4" clip-path="url(#a)" fill="none"/><path d="m308.32 307.96 4.1526 1.6602-3.8197 2.3259z" clip-path="url(#a)" fill="#5900a6"/></g><g stroke="#85007a" stroke-linecap="round" stroke-width=".26065"><path d="m102.94 66.19q70.72 46.913 141.2 93.666" clip-path="url(#a)" fill="none"/><path d="m241.91 155.98 2.2277 3.8778-4.4389-0.54456z" clip-path="url(#a)" fill="#85007a"/></g><g stroke="#2c00d3" stroke-linecap="round" stroke-width=".086883"><path d="m103.71 64.632q78.224 27.595 156.36 55.157" clip-path="url(#a)" fill="none"/><path d="m256.96 116.57 3.1068 3.2168-4.4375 0.5554z" clip-path="url(#a)" fill="#2c00d3"/></g><g stroke="#93006c" stroke-linecap="round" stroke-width=".28862"><path d="m344.92 237.49q-44.533-34.613-88.811-69.028" clip-path="url(#a)" fill="none"/><path d="m258.04 172.5-1.9309-4.0338 4.3856 0.87561z" clip-path="url(#a)" fill="#93006c"/></g><g stroke="#93006c" stroke-linecap="round" stroke-width=".28862"><path d="m343.44 241.89q-28.134 0.25571-55.946 0.50849" clip-path="url(#a)" fill="none"/><path d="m291.51 244.37-4.018-1.9636 3.9817-2.0363z" clip-path="url(#a)" fill="#93006c"/></g><g stroke="#2c00d3" stroke-linecap="round" stroke-width=".086883"><path d="m347.56 248.26q-12.451 27.167-24.861 54.245" clip-path="url(#a)" fill="none"/><path d="m326.18 299.7-3.4847 2.803-0.15158-4.4696z" clip-path="url(#a)" fill="#2c00d3"/></g><g stroke="#670098" stroke-linecap="round" stroke-width=".20174"><path d="m47.03 145.76q98.101 8.7704 195.98 17.521" clip-path="url(#a)" fill="none"/><path d="m239.2 160.93 3.806 2.3482-4.1622 1.6359z" clip-path="url(#a)" fill="#670098"/></g><g stroke="#4600b9" stroke-linecap="round" stroke-width=".13771"><path d="m47.024 144.41q106.39-10.764 212.62-21.513" clip-path="url(#a)" fill="none"/><path d="m255.46 121.31 4.181 1.5872-3.7783 2.3925z" clip-path="url(#a)" fill="#4600b9"/></g><defs><path id="b" d="m0 7.0711c1.8753 0 3.674-0.74505 5-2.0711 1.326-1.326 2.0711-3.1247 2.0711-5s-0.74505-3.674-2.0711-5c-1.326-1.326-3.1247-2.0711-5-2.0711s-3.674 0.74505-5 2.0711c-1.326 1.326-2.0711 3.1247-2.0711 5s0.74505 3.674 2.0711 5c1.326 1.326 3.1247 2.0711 5 2.0711z"/></defs><g clip-path="url(#a)" fill="#4ec3ed" stroke="#4ec3ed"><use x="250.274403" y="163.925758" xlink:href="#b"/><use x="233.836353" y="128.611791" xlink:href="#b"/><use x="266.831153" y="122.17338" xlink:href="#b"/><use x="340.000072" y="168.778131" xlink:href="#b"/><use x="280.09678" y="242.4703" xlink:href="#b"/><use x="147.944202" y="182.213018" xlink:href="#b"/><use x="322.997493" y="54.1021" xlink:href="#b"/><use x="319.713283" y="309.016822" xlink:href="#b"/><use x="409.642608" y="131.427782" xlink:href="#b"/><use x="137.312891" y="105.128441" xlink:href="#b"/><use x="254.987952" y="29.990083" xlink:href="#b"/><use x="178.857055" y="259.63374" xlink:href="#b"/><use x="196.427453" y="60.757915" xlink:href="#b"/><use x="112.894351" y="230.165124" xlink:href="#b"/><use x="363.362709" y="88.827711" xlink:href="#b"/><use x="420.813223" y="229.092249" xlink:href="#b"/><use x="240.762033" y="315.609917" xlink:href="#b"/><use x="97.048882" y="62.280271" xlink:href="#b"/><use x="350.505845" y="241.830362" xlink:href="#b"/><use x="39.986777" y="145.125532" xlink:href="#b"/></g><g clip-path="url(#a)"><g transform="translate(248.37 165.58) scale(.06 -.06)"><defs><path id="c" transform="scale(.015625)" d="m794 531h1031v3560l-1122-225v575l1116 225h631v-4135h1031v-531h-2687v531z"/></defs><use xlink:href="#c"/></g></g><g clip-path="url(#a)"><g transform="translate(231.93 130.27) scale(.06 -.06)"><defs><path id="d" transform="scale(.015625)" d="m1228 531h2203v-531h-2962v531q359 372 979 998 621 627 780 809 303 340 423 576 121 236 121 464 0 372-261 606-261 235-680 235-297 0-627-103-329-103-704-313v638q381 153 712 231 332 78 607 78 725 0 1156-363 431-362 431-968 0-288-108-546-107-257-392-607-78-91-497-524-418-433-1181-1211z"/></defs><use xlink:href="#d"/></g></g><g clip-path="url(#a)"><g transform="translate(264.92 123.83) scale(.06 -.06)"><defs><path id="k" transform="scale(.015625)" d="m2597 2516q453-97 707-404 255-306 255-756 0-690-475-1069-475-378-1350-378-293 0-604 58t-642 174v609q262-153 574-231 313-78 654-78 593 0 904 234t311 681q0 413-289 645-289 233-804 233h-544v519h569q465 0 712 186t247 536q0 359-255 551-254 193-729 193-260 0-557-57-297-56-653-174v562q360 100 674 150t592 50q719 0 1137-327 419-326 419-882 0-388-222-655t-631-370z"/></defs><use xlink:href="#k"/></g></g><g clip-path="url(#a)"><g transform="translate(338.09 170.43) scale(.06 -.06)"><defs><path id="j" transform="scale(.015625)" d="m2419 4116-1594-2491h1594v2491zm-166 550h794v-3041h666v-525h-666v-1100h-628v1100h-2106v609l1940 2957z"/></defs><use xlink:href="#j"/></g></g><g clip-path="url(#a)"><g transform="translate(278.19 244.13) scale(.06 -.06)"><defs><path id="i" transform="scale(.015625)" d="m691 4666h2478v-532h-1900v-1143q137 47 274 70 138 23 276 23 781 0 1237-428 457-428 457-1159 0-753-469-1171-469-417-1322-417-294 0-599 50-304 50-629 150v635q281-153 581-228t634-75q541 0 856 284 316 284 316 772 0 487-316 771-315 285-856 285-253 0-505-56-251-56-513-175v2344z"/></defs><use xlink:href="#i"/></g></g><g clip-path="url(#a)"><g transform="translate(146.04 183.87) scale(.06 -.06)"><defs><path id="h" transform="scale(.015625)" d="m2113 2584q-425 0-674-291-248-290-248-796 0-503 248-796 249-292 674-292t673 292q248 293 248 796 0 506-248 796-248 291-673 291zm1253 1979v-575q-238 112-480 171-242 60-480 60-625 0-955-422-329-422-376-1275 184 272 462 417 279 145 613 145 703 0 1111-427 408-426 408-1160 0-719-425-1154-425-434-1131-434-810 0-1238 620-428 621-428 1799 0 1106 525 1764t1409 658q238 0 480-47t505-140z"/></defs><use xlink:href="#h"/></g></g><g clip-path="url(#a)"><g transform="translate(321.09 55.758) scale(.06 -.06)"><defs><path id="g" transform="scale(.015625)" d="m525 4666h3e3v-269l-1694-4397h-659l1594 4134h-2241v532z"/></defs><use xlink:href="#g"/></g></g><g clip-path="url(#a)"><g transform="translate(317.8 310.67) scale(.06 -.06)"><defs><path id="f" transform="scale(.015625)" d="m2034 2216q-450 0-708-241-257-241-257-662 0-422 257-663 258-241 708-241t709 242q260 243 260 662 0 421-258 662-257 241-711 241zm-631 268q-406 100-633 378-226 279-226 679 0 559 398 884 399 325 1092 325 697 0 1094-325t397-884q0-400-227-679-226-278-629-378 456-106 710-416 255-309 255-755 0-679-414-1042-414-362-1186-362-771 0-1186 362-414 363-414 1042 0 446 256 755 257 310 713 416zm-231 997q0-362 226-565 227-203 636-203 407 0 636 203 230 203 230 565 0 363-230 566-229 203-636 203-409 0-636-203-226-203-226-566z"/></defs><use xlink:href="#f"/></g></g><g clip-path="url(#a)"><g transform="translate(407.73 133.08) scale(.06 -.06)"><defs><path id="e" transform="scale(.015625)" d="m703 97v575q238-113 481-172 244-59 479-59 625 0 954 420 330 420 377 1277-181-269-460-413-278-144-615-144-700 0-1108 423-408 424-408 1159 0 718 425 1152 425 435 1131 435 810 0 1236-621 427-620 427-1801 0-1103-524-1761-523-658-1407-658-238 0-482 47-243 47-506 141zm1256 1978q425 0 673 290 249 291 249 798 0 503-249 795-248 292-673 292t-673-292-248-795q0-507 248-798 248-290 673-290z"/></defs><use xlink:href="#e"/></g></g><g clip-path="url(#a)"><g transform="translate(133.5 106.78) scale(.06 -.06)"><defs><path id="l" transform="scale(.015625)" d="m2034 4250q-487 0-733-480-245-479-245-1442 0-959 245-1439 246-480 733-480 491 0 736 480 246 480 246 1439 0 963-246 1442-245 480-736 480zm0 500q785 0 1199-621 414-620 414-1801 0-1178-414-1799-414-620-1199-620-784 0-1198 620-414 621-414 1799 0 1181 414 1801 414 621 1198 621z"/></defs><use xlink:href="#c"/><use x="63.623047" xlink:href="#l"/></g></g><g clip-path="url(#a)"><g transform="translate(251.17 31.646) scale(.06 -.06)"><use xlink:href="#c"/><use x="63.623047" xlink:href="#c"/></g></g><g clip-path="url(#a)"><g transform="translate(175.04 261.29) scale(.06 -.06)"><use xlink:href="#c"/><use x="63.623047" xlink:href="#d"/></g></g><g clip-path="url(#a)"><g transform="translate(192.61 62.414) scale(.06 -.06)"><use xlink:href="#c"/><use x="63.623047" xlink:href="#k"/></g></g><g clip-path="url(#a)"><g transform="translate(109.08 231.82) scale(.06 -.06)"><use xlink:href="#c"/><use x="63.623047" xlink:href="#j"/></g></g><g clip-path="url(#a)"><g transform="translate(359.55 90.483) scale(.06 -.06)"><use xlink:href="#c"/><use x="63.623047" xlink:href="#i"/></g></g><g clip-path="url(#a)"><g transform="translate(417 230.75) scale(.06 -.06)"><use xlink:href="#c"/><use x="63.623047" xlink:href="#h"/></g></g><g clip-path="url(#a)"><g transform="translate(236.94 317.27) scale(.06 -.06)"><use xlink:href="#c"/><use x="63.623047" xlink:href="#g"/></g></g><g clip-path="url(#a)"><g transform="translate(93.231 63.936) scale(.06 -.06)"><use xlink:href="#c"/><use x="63.623047" xlink:href="#f"/></g></g><g clip-path="url(#a)"><g transform="translate(346.69 243.49) scale(.06 -.06)"><use xlink:href="#c"/><use x="63.623047" xlink:href="#e"/></g></g><g clip-path="url(#a)"><g transform="translate(36.169 146.78) scale(.06 -.06)"><use xlink:href="#d"/><use x="63.623047" xlink:href="#l"/></g></g><defs><clipPath id="a"><rect width="460.8" height="345.6"/></clipPath></defs></svg>
